<svg width="60" height="60" viewBox="0 0 60 60" fill="none" xmlns="http://www.w3.org/2000/svg">
<rect x="0.15" y="0.15" width="59.7" height="59.7" fill="white" stroke="#61DAFB" stroke-width="0.3"/>
<path d="M26.5117 19.9008C26.5117 20.9623 26.9346 21.9803 27.6872 22.7308C28.4399 23.4814 29.4607 23.9031 30.5251 23.9031C31.5895 23.9031 32.6103 23.4814 33.363 22.7308C34.1156 21.9803 34.5385 20.9623 34.5385 19.9008C34.5385 18.8393 34.1156 17.8213 33.363 17.0707C32.6103 16.3202 31.5895 15.8985 30.5251 15.8985C29.4607 15.8985 28.4399 16.3202 27.6872 17.0707C26.9346 17.8213 26.5117 18.8393 26.5117 19.9008Z" fill="#61DAFB"/>
<path d="M53 20.9886C53 17.8468 49.2977 15.1252 43.5435 13.4793C44.9933 7.68597 44.4816 3.12837 41.7525 1.55747C39.0184 -0.0134252 34.8043 1.82262 30.5 5.96999C26.1957 1.82262 21.9816 -0.0134252 19.2475 1.55747C16.5184 3.12837 16.0067 7.69098 17.4565 13.4793C11.7023 15.1252 8 17.8468 8 20.9886C8 24.1304 11.7023 26.8519 17.4565 28.4979C16.0067 34.2862 16.5184 38.8488 19.2475 40.4197C19.9197 40.8099 20.6823 41 21.515 41C23.5067 41 25.9197 39.9094 28.5385 37.7882C29.1906 37.2579 29.8478 36.6575 30.5 36.0272C31.1522 36.6575 31.8094 37.2579 32.4615 37.7882C35.0803 39.9094 37.4883 41 39.4849 41C40.3177 41 41.0803 40.8099 41.7525 40.4197C44.4816 38.8488 44.9933 34.2912 43.5435 28.4979C49.2977 26.8519 53 24.1304 53 20.9886ZM40.7742 3.24844C42.5452 4.26902 42.9164 7.96613 41.6572 12.994C39.8161 12.5738 37.8094 12.2586 35.6722 12.0635C34.4331 10.3175 33.1538 8.74158 31.8696 7.36079C34.8395 4.49415 37.5987 2.93826 39.495 2.93826C39.9766 2.93326 40.408 3.03832 40.7742 3.24844ZM36.7709 24.6006C36.0786 25.8013 35.3462 26.952 34.5987 28.0526C33.2893 28.1527 31.9247 28.2077 30.5 28.2077C29.0803 28.2077 27.7157 28.1527 26.4064 28.0526C25.6538 26.952 24.9264 25.7963 24.2341 24.6006C23.5268 23.3749 22.8946 22.1692 22.3227 20.9886C22.8946 19.8079 23.5268 18.6022 24.2341 17.3765C24.9415 16.1508 25.6739 15.0052 26.4114 13.9195C27.7207 13.8195 29.0853 13.7644 30.505 13.7644C31.9247 13.7644 33.2893 13.8195 34.5987 13.9195C35.3361 15.0002 36.0686 16.1508 36.7759 17.3715C37.4833 18.5972 38.1154 19.8029 38.6873 20.9836C38.1104 22.1692 37.4783 23.3749 36.7709 24.6006ZM39.7207 23.2799C40.2826 24.6106 40.7441 25.8864 41.1254 27.1071C39.8763 27.3872 38.5318 27.6274 37.097 27.8075C37.5635 27.0821 38.0201 26.3416 38.4666 25.5762C38.908 24.8058 39.3244 24.0403 39.7207 23.2799ZM30.5 33.2306C29.612 32.27 28.7391 31.2244 27.8813 30.0988C28.7391 30.1388 29.612 30.1638 30.5 30.1638C31.388 30.1638 32.2609 30.1388 33.1187 30.0988C32.2609 31.2244 31.388 32.27 30.5 33.2306ZM23.903 27.8075C22.4682 27.6274 21.1288 27.3872 19.8746 27.1071C20.2559 25.8864 20.7174 24.6106 21.2793 23.2799C21.6756 24.0403 22.087 24.8058 22.5334 25.5762C22.9799 26.3366 23.4365 27.077 23.903 27.8075ZM21.2793 18.6973C20.7174 17.3665 20.2559 16.0908 19.8746 14.8701C21.1237 14.5899 22.4632 14.3498 23.898 14.1697C23.4365 14.8901 22.9749 15.6305 22.5334 16.401C22.092 17.1714 21.6756 17.9368 21.2793 18.6973ZM30.5 8.74658C31.3679 9.68211 32.2458 10.7377 33.1137 11.8834C32.2559 11.8433 31.388 11.8183 30.5 11.8183C29.612 11.8183 28.7441 11.8433 27.8863 11.8834C28.7542 10.7377 29.6321 9.68211 30.5 8.74658ZM38.4615 16.401C38.0151 15.6355 37.5585 14.8951 37.097 14.1697C38.5318 14.3498 39.8712 14.5899 41.1204 14.8701C40.7391 16.0908 40.2776 17.3665 39.7157 18.6973C39.3244 17.9368 38.908 17.1714 38.4615 16.401ZM20.2258 3.24844C20.587 3.03832 21.0184 2.93826 21.51 2.93826C23.4064 2.93826 26.1605 4.49415 29.1304 7.36079C27.8462 8.74158 26.5669 10.3225 25.3278 12.0635C23.1957 12.2586 21.1839 12.5738 19.3428 12.994C18.0836 7.96113 18.4599 4.26402 20.2258 3.24844ZM9.95652 20.9886C9.95652 18.9474 12.9816 16.7762 17.9833 15.3554C18.5401 17.1564 19.2676 19.0475 20.1656 20.9886C19.2726 22.9297 18.5401 24.8208 17.9833 26.6218C12.9816 25.201 9.95652 23.0247 9.95652 20.9886ZM27.3043 36.2723C24.3094 38.6987 21.7308 39.5942 20.2258 38.7337C18.4549 37.7131 18.0836 34.016 19.3428 28.9881C21.1839 29.4084 23.1906 29.7236 25.3278 29.9187C26.5518 31.6447 27.8311 33.2256 29.1304 34.6314C28.5234 35.2167 27.9164 35.777 27.3043 36.2723ZM40.7742 38.7337C39.2742 39.5992 36.6906 38.7037 33.6957 36.2723C33.0886 35.777 32.4766 35.2167 31.8645 34.6314C33.1689 33.2256 34.4431 31.6447 35.6672 29.9187C37.7993 29.7236 39.811 29.4084 41.6522 28.9831C42.9164 34.016 42.5401 37.7131 40.7742 38.7337ZM43.0217 26.6218C42.4649 24.8208 41.7375 22.9297 40.8395 20.9886C41.7324 19.0475 42.4649 17.1564 43.0217 15.3554C48.0234 16.7812 51.0485 18.9524 51.0485 20.9886C51.0435 23.0247 48.0184 25.201 43.0217 26.6218Z" fill="#61DAFB"/>
<path d="M9.504 56V44.8H14.112C15.104 44.8 15.952 44.96 16.656 45.28C17.3707 45.6 17.92 46.0587 18.304 46.656C18.688 47.2533 18.88 47.9627 18.88 48.784C18.88 49.6053 18.688 50.3147 18.304 50.912C17.92 51.4987 17.3707 51.952 16.656 52.272C15.952 52.5813 15.104 52.736 14.112 52.736H10.656L11.584 51.792V56H9.504ZM16.832 56L14 51.936H16.224L19.072 56H16.832ZM11.584 52.016L10.656 51.024H14.016C14.9333 51.024 15.6213 50.8267 16.08 50.432C16.5493 50.0373 16.784 49.488 16.784 48.784C16.784 48.0693 16.5493 47.52 16.08 47.136C15.6213 46.752 14.9333 46.56 14.016 46.56H10.656L11.584 45.536V52.016ZM24.2311 56.112C23.2818 56.112 22.4498 55.9253 21.7351 55.552C21.0311 55.168 20.4818 54.6453 20.0871 53.984C19.7031 53.3227 19.5111 52.5707 19.5111 51.728C19.5111 50.8747 19.6978 50.1227 20.0711 49.472C20.4551 48.8107 20.9778 48.2933 21.6391 47.92C22.3111 47.5467 23.0738 47.36 23.9271 47.36C24.7591 47.36 25.5005 47.5413 26.1511 47.904C26.8018 48.2667 27.3138 48.7787 27.6871 49.44C28.0605 50.1013 28.2471 50.88 28.2471 51.776C28.2471 51.8613 28.2418 51.9573 28.2311 52.064C28.2311 52.1707 28.2258 52.272 28.2151 52.368H21.0951V51.04H27.1591L26.3751 51.456C26.3858 50.9653 26.2845 50.5333 26.0711 50.16C25.8578 49.7867 25.5645 49.4933 25.1911 49.28C24.8285 49.0667 24.4071 48.96 23.9271 48.96C23.4365 48.96 23.0045 49.0667 22.6311 49.28C22.2685 49.4933 21.9805 49.792 21.7671 50.176C21.5645 50.5493 21.4631 50.992 21.4631 51.504V51.824C21.4631 52.336 21.5805 52.7893 21.8151 53.184C22.0498 53.5787 22.3805 53.8827 22.8071 54.096C23.2338 54.3093 23.7245 54.416 24.2791 54.416C24.7591 54.416 25.1911 54.3413 25.5751 54.192C25.9591 54.0427 26.3005 53.808 26.5991 53.488L27.6711 54.72C27.2871 55.168 26.8018 55.5147 26.2151 55.76C25.6391 55.9947 24.9778 56.112 24.2311 56.112ZM34.3979 56V54.272L34.2859 53.904V50.88C34.2859 50.2933 34.1099 49.84 33.7579 49.52C33.4059 49.1893 32.8725 49.024 32.1579 49.024C31.6779 49.024 31.2032 49.0987 30.7339 49.248C30.2752 49.3973 29.8859 49.6053 29.5659 49.872L28.7819 48.416C29.2405 48.064 29.7845 47.8027 30.4139 47.632C31.0539 47.4507 31.7152 47.36 32.3979 47.36C33.6352 47.36 34.5899 47.6587 35.2619 48.256C35.9445 48.8427 36.2859 49.7547 36.2859 50.992V56H34.3979ZM31.7099 56.112C31.0699 56.112 30.5099 56.0053 30.0299 55.792C29.5499 55.568 29.1765 55.264 28.9099 54.88C28.6539 54.4853 28.5259 54.0427 28.5259 53.552C28.5259 53.072 28.6379 52.64 28.8619 52.256C29.0965 51.872 29.4752 51.568 29.9979 51.344C30.5205 51.12 31.2139 51.008 32.0779 51.008H34.5579V52.336H32.2219C31.5392 52.336 31.0805 52.448 30.8459 52.672C30.6112 52.8853 30.4939 53.152 30.4939 53.472C30.4939 53.8347 30.6379 54.1227 30.9259 54.336C31.2139 54.5493 31.6139 54.656 32.1259 54.656C32.6165 54.656 33.0539 54.544 33.4379 54.32C33.8325 54.096 34.1152 53.7653 34.2859 53.328L34.6219 54.528C34.4299 55.0293 34.0832 55.4187 33.5819 55.696C33.0912 55.9733 32.4672 56.112 31.7099 56.112ZM41.9883 56.112C41.0923 56.112 40.2923 55.9253 39.5883 55.552C38.8949 55.168 38.3509 54.6453 37.9563 53.984C37.5616 53.3227 37.3643 52.5707 37.3643 51.728C37.3643 50.8747 37.5616 50.1227 37.9563 49.472C38.3509 48.8107 38.8949 48.2933 39.5883 47.92C40.2923 47.5467 41.0923 47.36 41.9883 47.36C42.8203 47.36 43.5509 47.5307 44.1803 47.872C44.8203 48.2027 45.3056 48.6933 45.6363 49.344L44.1003 50.24C43.8443 49.8347 43.5296 49.536 43.1563 49.344C42.7936 49.152 42.3989 49.056 41.9723 49.056C41.4816 49.056 41.0389 49.1627 40.6443 49.376C40.2496 49.5893 39.9403 49.8987 39.7163 50.304C39.4923 50.6987 39.3803 51.1733 39.3803 51.728C39.3803 52.2827 39.4923 52.7627 39.7163 53.168C39.9403 53.5627 40.2496 53.8667 40.6443 54.08C41.0389 54.2933 41.4816 54.4 41.9723 54.4C42.3989 54.4 42.7936 54.304 43.1563 54.112C43.5296 53.92 43.8443 53.6213 44.1003 53.216L45.6363 54.112C45.3056 54.752 44.8203 55.248 44.1803 55.6C43.5509 55.9413 42.8203 56.112 41.9883 56.112ZM49.8905 56.112C48.9518 56.112 48.2265 55.872 47.7145 55.392C47.2025 54.9013 46.9465 54.1813 46.9465 53.232V45.568H48.9465V53.184C48.9465 53.5893 49.0478 53.904 49.2505 54.128C49.4638 54.352 49.7572 54.464 50.1305 54.464C50.5785 54.464 50.9518 54.3467 51.2505 54.112L51.8105 55.536C51.5758 55.728 51.2878 55.872 50.9465 55.968C50.6052 56.064 50.2532 56.112 49.8905 56.112ZM45.5385 49.12V47.52H51.2345V49.12H45.5385Z" fill="#61DAFB"/>
</svg>
