<svg width="60" height="60" viewBox="0 0 60 60" fill="none" xmlns="http://www.w3.org/2000/svg">
<path d="M0 0V60H60V0H0ZM45.5912 29.1426V29.1435C46.1665 29.1453 46.8204 29.1749 47.3122 29.2282C49.315 29.4449 50.8747 30.309 52.2016 31.9365C52.8624 32.7472 53.0884 33.1019 53.0403 33.2537C53.0093 33.3516 52.5559 33.6763 51.1144 34.6331C49.6984 35.5732 49.2424 35.8549 49.1365 35.8549C49.029 35.8549 48.8051 35.6246 48.4826 35.1824C47.8613 34.331 47.2271 33.9425 46.2466 33.8129C45.1922 33.6732 44.2463 34.0056 43.7831 34.6788C43.3871 35.2541 43.3272 36.1797 43.6419 36.8524C44.0066 37.6313 44.6666 38.0621 47.1959 39.171C50.1129 40.4501 51.5912 41.3256 52.6678 42.4122C53.8272 43.5822 54.4146 44.9331 54.595 46.844C54.6831 47.7754 54.5754 48.8793 54.309 49.7768C53.6553 51.9769 51.8913 53.5879 49.306 54.3462C48.5913 54.5557 47.9263 54.6809 47.2685 54.7291C46.2643 54.8031 44.8269 54.7624 43.9618 54.6365C41.7729 54.3175 39.3021 53.0438 38.07 51.5997C37.4651 50.8907 36.6929 49.724 36.6929 49.5188C36.6929 49.4197 36.7421 49.3634 36.9365 49.2399C37.5132 48.8734 40.8179 46.9843 40.8821 46.9843C40.9209 46.9843 41.0935 47.1876 41.2656 47.4363C41.6554 47.9993 42.6141 48.9668 43.1015 49.2896C43.4996 49.5532 44.0087 49.7649 44.6131 49.9176C44.9593 50.004 45.1425 50.0194 45.8978 50.0194C46.6696 50.0191 46.8278 50.0062 47.1731 49.9134C48.0863 49.6676 48.7991 49.159 49.1012 48.5378C49.2335 48.2694 49.2362 48.2359 49.2362 47.5849V46.9099L49.0738 46.5878C48.6807 45.8075 47.8337 45.2721 45.1554 44.1121C43.9253 43.5791 42.4187 42.8278 41.8304 42.454C40.4879 41.6009 39.5575 40.6256 38.9469 39.4318C38.3396 38.2446 38.2491 37.8026 38.2476 36.0175C38.2462 34.62 38.2438 34.6372 38.5331 33.7453C38.7956 32.9359 39.3329 32.0318 39.9262 31.4012C41.11 30.1428 42.8399 29.334 44.6918 29.1731C44.9285 29.1506 45.2459 29.1419 45.591 29.1429L45.5912 29.1426ZM29.6559 29.4187H29.6565C33.2231 29.4204 35.2676 29.4328 35.3004 29.4534C35.3622 29.4916 35.37 29.8021 35.37 31.7831V34.0685L31.811 34.0815L28.2521 34.0944V44.1993C28.2521 49.7571 28.2407 54.3372 28.2253 54.3776C28.2001 54.4457 27.9263 54.4509 25.6106 54.4509H23.0243L22.9975 54.3465C22.9803 54.2891 22.9676 49.7087 22.9674 44.1679L22.9665 34.0938L19.4076 34.0812L15.8485 34.0682V31.8099C15.8485 30.0187 15.8609 29.539 15.9087 29.4913C15.9576 29.4409 17.774 29.4279 25.6001 29.4201C27.109 29.4187 28.4671 29.4179 29.656 29.4187H29.6559Z" fill="#0288D1"/>
</svg>
